<?xml version='1.0' encoding='utf-8'?>
<svg xmlns="http://www.w3.org/2000/svg" viewBox="0 0 744.09 524.41"> <path transform="matrix(.98511 0 0 .80475 -12.296 -34.365)" d="m602.36 232.09a239.17 150.59 0 1 1-478.35 0 239.17 150.59 0 1 1 478.35 0z" fill="none" stroke="#000" stroke-linecap="round" stroke-linejoin="round" stroke-width="7.0866"/> <path transform="matrix(1.1942 0 0 1 -79.483 -141.73)" d="m531.5 418.11a26.575 17.717 0 1 1-53.15 0 26.575 17.717 0 1 1 53.15 0z" fill="none" stroke="#000" stroke-linecap="round" stroke-linejoin="round" stroke-width="5.315"/> <path transform="matrix(.91824 0 0 .84258 76.717 -32.538)" d="m531.5 418.11a26.575 17.717 0 1 1-53.15 0 26.575 17.717 0 1 1 53.15 0z" fill="none" stroke="#000" stroke-linecap="round" stroke-linejoin="round" stroke-width="5.315"/> <path transform="matrix(.67308 0 0 .53975 218.79 128.12)" d="m531.5 418.11a26.575 17.717 0 1 1-53.15 0 26.575 17.717 0 1 1 53.15 0z" fill="none" stroke="#000" stroke-linecap="round" stroke-linejoin="round" stroke-width="5.315"/> </svg>