<?xml version='1.0' encoding='utf-8'?>
<svg xmlns="http://www.w3.org/2000/svg" enable-background="new 0 0 385.926 311.852" version="1.1" viewBox="0 0 385.93 311.85"> <path d="m166.27 111.53 1.32-40.93 24.646 30.808 21.125-26.846 12.764 36.088 47.687-30.118-25.683 46.401 35.209 14.083-24.646 8.802 22.227 23.766-35.43 2.2 12.324 29.928-29.047-10.562 7 45.046-23.285-26.562-10.485 33.828-14.16-28.988-28.161 34.76 5.715-51.043-36.529 4.401 19.805-26.407-38.289-7.921 26.846-14.964-43.003-11.26 47.845-12.945-17.604-43.13 41.79 21.56zm-44.21 34.62 37.172 9.28-22.555 12.433 28.167 6.162-15.954 21.234 25.636-3.08-5.605 39.49 20.789-27.498 10.639 23.157 8.065-27.778 18.127 23.04-6.904-40.425 21.895 7.923-9.352-22.665 29.377-1.762-18.705-19.914 14.744-5.281-21.785-8.692 21.73-34.58-36.944 24.999-10.35-29.158-17.935 22.886-16.504-20.575-0.99 30.587-32.678-16.724 11.993 29.377-32.1 7.55z"/> </svg>