<?xml version='1.0' encoding='utf-8'?>
<svg xmlns="http://www.w3.org/2000/svg" viewBox="0 0 640 480"> <g fill="#fff" stroke="#000" stroke-linejoin="round"> <path d="m267.4 55.838c-27.103 0-50.616 7.616-63.768 18.864-12.203-4.494-26.995-7.2112-43.062-7.2112-41.35 0-74.946 17.511-74.946 39.064 0 1.5838 0.56399 3.0977 0.91623 4.6323-35.711 2.97-63.127 18.95-63.127 38.396 0 19.268 26.889 35.215 62.119 38.396-0.71384 2.1634-1.2827 4.369-1.2827 6.6381 0 21.553 33.596 39.017 74.946 39.017 20.253 0 38.554-4.2169 52.041-11.032 13.745 8.522 34.065 14.088 57.08 14.088 32.837 0 60.442-11.121 70.548-26.457 8.0886 1.5591 16.713 2.5788 25.837 2.5788 41.35 0 74.854-17.511 74.854-39.064 0-10.838-8.477-20.622-22.172-27.698 6.9142-5.9126 11.178-12.775 11.178-20.201 0-21.553-33.596-39.017-74.946-39.017-4.3528 0-8.5852 0.24881-12.735 0.62083-6.6771-17.994-37.017-31.614-73.48-31.614z" stroke-width="10.857"/> <path d="m371.58 253.75c0 8.051-12.522 14.578-27.968 14.578s-27.968-6.5267-27.968-14.578c0-8.051 12.522-14.578 27.968-14.578s27.968 6.5267 27.968 14.578z" stroke-width="4.799"/> <path d="m400.31 285.55c0 5.5881-8.6911 10.118-19.412 10.118s-19.412-4.5301-19.412-10.118c0-5.5881 8.6911-10.118 19.412-10.118s19.412 4.5301 19.412 10.118z" stroke-width="5.403"/> </g> </svg>