<?xml version='1.0' encoding='utf-8'?>
<svg xmlns="http://www.w3.org/2000/svg" viewBox="0 0 500 500"> <defs> <filter id="a"> <feGaussianBlur stdDeviation="7.1066"/> </filter> </defs> <path d="m320.59 299.1 57.295 53.845-26.317-92.847 99.506 22.913-58.918-51.551h109.98l-102.12-31.505 90.341-39.991-76.07-16.125 39.423-49.35-62.125 9.2202 22.834-62.704-59.219 38.897-13.92-57.781-42.092 51.785c0-3.5969-24.706-51.051-26.016-51.051s-25.465 50.085-25.465 50.085l-44.084-46.255-11.064 54.416-41.295-46.592s-0.90296 52.052-3.5212 52.052-62.532-32.271-62.532-32.271 14.376 59.281 14.376 60.713-65.006-10.326-65.006-10.326l53.537 42.761-56.732 19.513s47.554 36.207 46.244 37.639-42.041 37.824-42.041 37.824 72.6-1.7913 71.29-1.7913c-0.14413 1.199-69.418 54.543-69.418 55.975s75.376-19.082 75.376-19.082l-50.788 74.533 84.684-60.446-17.898 65.603 49.897-41.189-13.538 35.659 64.771-31.131-160.71 178.37 201.28-179.07 24.406 43.694 25.648-64.44z" fill-opacity=".49804" fill-rule="evenodd" filter="url(#a)"/> <path d="m297.01 287.78 57.295 53.845-26.317-92.847 99.506 22.913-58.919-51.551h109.98l-102.12-31.505 90.341-39.991-76.07-16.125 39.423-49.35-62.125 9.2202 22.834-62.704-59.219 38.897-13.92-57.781-42.092 51.785c0-3.5968-24.706-51.051-26.016-51.051s-25.465 50.085-25.465 50.085l-44.084-46.255-11.064 54.416-41.295-46.592s-0.90296 52.052-3.5212 52.052-62.532-32.271-62.532-32.271 14.376 59.281 14.376 60.713-65.006-10.326-65.006-10.326l53.537 42.761-56.732 19.513s47.554 36.207 46.244 37.639-42.041 37.824-42.041 37.824 72.6-1.7913 71.29-1.7913c-0.14413 1.199-69.418 54.543-69.418 55.975s75.376-19.082 75.376-19.082l-50.788 74.533 84.684-60.446-17.898 65.603 49.897-41.189-13.538 35.659 64.771-31.131-160.71 178.37 201.28-179.07 24.406 43.694 25.648-64.44z" fill="#fff" fill-rule="evenodd" stroke="#000" stroke-linejoin="round" stroke-width="10"/> </svg>