<?xml version='1.0' encoding='utf-8'?>
<svg xmlns="http://www.w3.org/2000/svg" viewBox="0 0 500 500"> <path d="m255.89 32.459c-109.88 1.7544-206.81 62.597-227.38 148.91-23.517 98.639 61.542 193.36 189.88 211.44l1.2564-0.03125c-0.04145 0.23395 0.03382 0.32933-0.03065 0.5625l-2.1451 0.0625 60.033 85.688 47.499-89.25-4.2596 0.15625 2.6967-0.125 1.6855-1 0.39839-0.03125-0.52097 1 0.67419-0.03125v-0.96875h0.03065c88.843-19.445 151.13-72.131 167.78-141.97 23.517-98.639-61.572-193.36-189.91-211.44-16.042-2.2595-31.986-3.2194-47.683-2.9688z" fill-opacity=".5" fill-rule="evenodd"/> <path d="m243.2 22.75c-109.88 1.7544-206.81 62.597-227.38 148.91-23.517 98.639 61.542 193.36 189.88 211.44l1.2564-0.03125c-0.04146 0.23396 0.03381 0.32934-0.03065 0.5625l-2.1451 0.0625 60.033 85.688 47.499-89.25-4.2596 0.15625 2.6968-0.125 1.6855-1 0.39838-0.03125-0.52096 1 0.67419-0.03125v-0.96875h0.03064c88.843-19.445 151.13-72.131 167.78-141.97 23.517-98.639-61.572-193.36-189.91-211.44-16.042-2.2595-31.986-3.2194-47.683-2.9688z" fill="#fff" fill-rule="evenodd" stroke="#000" stroke-linejoin="round" stroke-width="10"/> </svg>