<?xml version='1.0' encoding='utf-8'?>
<svg xmlns="http://www.w3.org/2000/svg" viewBox="0 0 220.74 211.23"> <g transform="translate(-2104.1 -1256.3)"> <path d="m2169.5 1258.4c-0.2962 2e-3 -0.6001 0.0143-0.8966 0.0191-7.9161 0.128-15.92 1.277-23.637 3.5293l-0.2671 0.0763c-32.236 9.5214-47.088 34.966-33.214 56.908 9.2252 14.59 28.857 23.97 50.479 25.888-6.9274 12.826-6.8762 27.368 1.7742 40.883 18.054 28.206 66.809 41.267 108.84 29.15 3.03-0.8736 5.9475-1.8595 8.7374-2.9379 8.559 15.498 9.0392 34.072 7.4402 53.436 0 0 12.642-25.926 15.243-44.526 1.2179-8.7092 0.2271-15.816-1.1637-20.909 19.851-15.597 26.054-38 13.182-58.11-14.387-22.477-48.28-35.335-82.719-33.5 1.742-7.7448 0.4197-15.894-4.4641-23.618-10.473-16.564-34.346-26.454-59.33-26.288z" fill="#fff" stroke="#000" stroke-linecap="round" stroke-linejoin="round" stroke-width="4.2733"/> </g> </svg>