<?xml version='1.0' encoding='utf-8'?>
<svg xmlns="http://www.w3.org/2000/svg" viewBox="0 0 237.02 194.42"> <g transform="translate(-1338.2 -1060.4)"> <path d="m1451.1 1062.5c-40.959 0.0971-80.851 3.4361-93.536 10.76-26.406 15.246-19.254 109.66 0 120.78 3.7158 2.1453 12.462 3.9184 24.343 5.3035-0.5425 9.4263 0.3535 22.941 7.8789 33.118 17.216 23.283 50.975 20.031 50.975 20.031s-30.992-12.021-39.166-29.97c-3.1241-6.8603-2.8974-14.592-1.4499-21.519 54.152 3.842 140.26 1.9549 155.71-6.9632 22.155-12.791 23.79-107.04 0-120.78-12.021-6.9403-59.055-10.868-104.75-10.76z" fill="#fff" stroke="#000" stroke-linejoin="round" stroke-width="4.2733"/> </g> </svg>