<?xml version='1.0' encoding='utf-8'?>
<svg xmlns="http://www.w3.org/2000/svg" viewBox="0 0 150 130.25"> <defs> <filter id="a" x="-.11036" y="-.13149" width="1.2207" height="1.263"> <feGaussianBlur stdDeviation="1.60938"/> </filter> </defs> <g transform="matrix(3.5108 0 0 3.5108 -1126.6 -592.23)"> <path d="m325.375,201.92469 6.125-7.5v-4.5h-5.75l3-4.5-4-4.375 6.875-.625-.375-5.125 7,1 3.5-3.75 4.5,4.75 6.25-1.75 .375,5 5.625.375-3.25,3.875 4.5,4.25-5.875,1.125-1.375,6.375-5.75-3.75-4.625,5.375-3.125-4.125-2.625-.25-11,8.125z" fill="#7a7a7a" filter="url(#a)"/> <path d="m326.125,198.86219 6.125-7.5v-4.5h-5.75l3-4.5-4-4.375 6.875-.625-.375-5.125 7,1 3.5-3.75 4.5,4.75 6.25-1.75 .375,5 5.625.375-3.25,3.875 4.5,4.25-5.875,1.125-1.375,6.375-5.75-3.75-4.625,5.375-3.125-4.125-2.625-.25-11,8.125z" fill="#fff" stroke="#000" stroke-linejoin="round" stroke-width=".28483"/> </g> </svg>