<?xml version='1.0' encoding='utf-8'?>
<svg xmlns="http://www.w3.org/2000/svg" viewBox="0 0 500 500"> <path d="m257.44 30.841c-109.18 1.7544-205.48 62.597-225.93 148.91-23.357 98.599 61.082 193.28 188.51 211.41 0.02681 0.15189-0.01834 0.37662-0.03045 0.59375l-0.73076 0.03125-99.292 92.344 204-95.844-2.0096 0.0625 1.3093-1 2.923-0.09375-2.2227 1.0312 2.8012-0.09375v-0.96875h0.03045c88.273-19.445 150.16-72.131 166.7-141.97 23.366-98.639-61.177-193.36-188.69-211.44-15.939-2.2595-31.78-3.2194-47.377-2.9688z" fill-opacity=".5" fill-rule="evenodd"/> <path d="m241.67 22.75c-109.18 1.7544-205.48 62.597-225.93 148.91-23.357 98.599 61.082 193.28 188.51 211.41 0.0268 0.15189-0.01835 0.37663-0.03045 0.59375l-0.73076 0.03125-99.292 92.344 204-95.844-2.0096 0.0625 1.3093-1 2.923-0.09375-2.2227 1.0312 2.8012-0.09375v-0.96875h0.03045c88.273-19.445 150.16-72.131 166.7-141.97 23.366-98.639-61.177-193.36-188.69-211.44-15.939-2.2595-31.78-3.2194-47.377-2.9688z" fill="#fff" fill-rule="evenodd" stroke="#000" stroke-linejoin="round" stroke-width="10"/> </svg>