<?xml version='1.0' encoding='utf-8'?>
<svg xmlns="http://www.w3.org/2000/svg" viewBox="0 0 500 500"> <defs> <filter id="a"> <feGaussianBlur stdDeviation="6.57588"/> </filter> </defs> <path d="m166.38 68.843c3.597 0 35.974-23.983 88.737-26.381 71.948-8.394 101.93 38.372 101.93 38.372-2.398 5.9957 49.164-37.173 79.143-33.576 32.377 4.7966 45.568 19.186 41.97 49.165-2.398 19.187-22.784 27.581-27.58 37.174 2.398 4.796 28.779 20.386 28.779 62.356s-26.381 64.753-25.182 64.753 26.381 41.97 7.195 67.152-73.148 1.2-81.542-3.597c-8.394 2.398-8.394 19.186-32.377 22.784s-53.961-7.195-53.961-7.195l-11.991-9.593 129.51 135.5-189.46-128.31c-15.588 4.797-11.991 8.394-56.359 13.191-37.174 0-28.78-7.195-40.771-11.992-14.39 9.593-73.148 22.785-92.334-13.19-15.589-45.567 8.3941-56.36 13.191-64.754-4.7965-10.792-20.385-28.779-17.987-62.355 0-43.17 10.792-64.754 20.386-71.949-4.7966-9.593-23.983-47.966 17.987-71.948 69.55-17.987 99.529 15.589 100.73 14.39z" fill-opacity=".49804" fill-rule="evenodd" filter="url(#a)"/> <path d="m151.81 54.28c3.597 0 35.974-23.983 88.737-26.381 71.948-8.394 101.93 38.372 101.93 38.372-2.398 5.9957 49.164-37.173 79.143-33.576 32.377 4.7966 45.568 19.186 41.97 49.165-2.398 19.187-22.784 27.581-27.58 37.174 2.398 4.796 28.779 20.386 28.779 62.356s-26.381 64.753-25.182 64.753 26.381 41.97 7.195 67.152-73.148 1.2-81.542-3.597c-8.394 2.398-8.394 19.186-32.377 22.784s-53.961-7.195-53.961-7.195l-11.991-9.593 129.51 135.5-189.46-128.31c-15.588 4.797-11.991 8.394-56.359 13.191-37.174 0-28.78-7.195-40.771-11.992-14.39 9.593-73.148 22.785-92.334-13.19-15.589-45.567 8.3941-56.36 13.191-64.754-4.7965-10.792-20.385-28.779-17.987-62.355 0-43.17 10.792-64.754 20.386-71.949-4.7966-9.593-23.983-47.966 17.987-71.948 69.55-17.987 99.529 15.589 100.73 14.39z" fill="#fff" fill-rule="evenodd" stroke="#000" stroke-linejoin="round" stroke-width="10"/> </svg>