<?xml version='1.0' encoding='utf-8'?>
<svg xmlns="http://www.w3.org/2000/svg" viewBox="0 0 500 500"> <path d="m255.86 30.841c-109.16 1.7544-205.45 62.597-225.89 148.91-23.362 98.639 61.136 193.36 188.63 211.44l1.2786-0.0625 0.70019 0.5625-2.8921 0.09375 181.08 85.125-73.398-89.719c88.176-19.472 149.99-72.14 166.52-141.94 23.362-98.639-61.167-193.36-188.66-211.44-15.936-2.2595-31.775-3.2194-47.369-2.9688zm69.045 356.38h0.27399v0.46875l-0.27399-0.46875z" fill-opacity=".5" fill-rule="evenodd"/> <path d="m243.25 22.75c-109.16 1.7544-205.45 62.597-225.89 148.91-23.362 98.639 61.136 193.36 188.63 211.44l1.2786-0.0625 0.70019 0.5625-2.8921 0.09375 181.08 85.125-73.398-89.719c88.176-19.472 149.99-72.14 166.52-141.94 23.362-98.639-61.167-193.36-188.66-211.44-15.936-2.2595-31.775-3.2194-47.369-2.9688zm69.045 356.38h0.27398v0.46875l-0.27398-0.46875z" fill="#fff" fill-rule="evenodd" stroke="#000" stroke-linejoin="round" stroke-width="10"/> </svg>