<?xml version='1.0' encoding='utf-8'?>
<svg xmlns="http://www.w3.org/2000/svg" viewBox="0 0 500 500"> <defs> <filter id="a"> <feGaussianBlur stdDeviation="6.53414"/> </filter> </defs> <path d="m261.21 25.577c-116.15 3.2212-232.89 64.446-235.98 184.09 2.7156 96.185 91.589 145.85 191.21 152.94-4.9755 5.2588-8.0275 11.616-8.2751 19.125 0.69692 19.345 23.167 29.461 48.643 31.156-0.8118 1.4062-1.3514 2.9648-1.4046 4.75 0.48986 15.026 36.366 13.494 37.101-1.4062-0.01844-2.3203-0.92978-4.2405-2.3512-5.8438 21.584-4.8368 39.235-15.92 40.154-32.781-0.08216-9.3536-5.2997-16.654-13.313-22.094 92.829-19.74 172.87-76.115 176.71-166.09-0.77306-112.28-116.35-167.06-232.5-163.84z" fill-opacity=".49804" fill-rule="evenodd" filter="url(#a)"/> <path d="m479.37 178.09c-9.2766 217.21-462.28 239.3-468.47 20.248 6.1843-239.3 466.92-244.82 468.47-20.248z" fill="#fff" fill-rule="evenodd" stroke="#000" stroke-linejoin="round" stroke-width="10"/> <path d="m315.97 366.28c-2.4187 44.382-120.53 48.895-122.14 4.1373 1.6124-48.895 121.74-50.024 122.14-4.1373z" fill="#fff" fill-rule="evenodd" stroke="#000" stroke-linejoin="round" stroke-width="10"/> <path d="m278.17 404.91c-0.73478 14.9-36.617 16.415-37.107 1.389 0.48985-16.415 36.985-16.794 37.107-1.389z" fill="#fff" fill-rule="evenodd" stroke="#000" stroke-linejoin="round" stroke-width="10"/> </svg>